<svg xmlns="http://www.w3.org/2000/svg" xmlns:xlink="http://www.w3.org/1999/xlink" width="88" height="88" viewBox="0 0 88 88">
  <defs>
    <clipPath id="clip-path">
      <rect id="長方形_19" data-name="長方形 19" width="88" height="88" transform="translate(6930 -975)" fill="#fff" stroke="#707070" stroke-width="1"/>
    </clipPath>
  </defs>
  <g id="マスクグループ_1" data-name="マスクグループ 1" transform="translate(-6930 975)" clip-path="url(#clip-path)">
    <g id="Standard_Collection_25_1_" data-name="Standard Collection 25 (1)" transform="translate(6930 -975)">
      <path id="パス_1" data-name="パス 1" d="M0,40.339V54.046c24.4-29.585,32.506,64.793,82.042,7.386,1.766-2.039,3.272-5.437,4.331-9.77A62.966,62.966,0,0,0,88,37.055C33.954,108.241,25.6,9.438,1.156,35.731a4.284,4.284,0,0,0-.84,1.824A11.711,11.711,0,0,0,0,40.339Z" fill="#458985"/>
      <path id="パス_2" data-name="パス 2" d="M87.769,5.894c-16.218-19.66-25.236,15.421-44,24.325C54.335,35.233,67.992,31.944,87.769,5.894Z" fill="#67c973"/>
      <path id="パス_3" data-name="パス 3" d="M0,30.051C25.19-.49,33.011,101.045,86.954,31.416a4.884,4.884,0,0,0,.762-1.83A11.889,11.889,0,0,0,88,26.939V13.058C39.007,77.588,27.563,2.428,7.641,7.4c-2.088.519-4.029,3.13-5.443,7.321A49.812,49.812,0,0,0,0,30.051Z" fill="#458985"/>
      <path id="パス_4" data-name="パス 4" d="M.232,61.7c16.215-19.66,25.234,15.421,44,24.327C33.661,91.034,20.006,87.746.232,61.7Z" fill="#ef980c"/>
    </g>
  </g>
</svg>
